<?xml version="1.0" ?><!DOCTYPE svg  PUBLIC '-//W3C//DTD SVG 1.0//EN'  'http://www.w3.org/TR/2001/REC-SVG-20010904/DTD/svg10.dtd'><svg height="32" style="overflow:visible;enable-background:new 0 0 32 32" viewBox="0 0 32 32" width="32" xml:space="preserve" xmlns="http://www.w3.org/2000/svg" xmlns:xlink="http://www.w3.org/1999/xlink"><g><g id="Pinterest_2_"><g id="Pinterest_1_"><circle cx="16" cy="16" id="BG" r="16" style="fill:#FC2B36;"/><path d="M16,8c-4.4,0-8,3.6-8,8c0,3.3,2,6.1,4.8,7.3        c0-0.6,0-1.2,0.1-1.8c0.2-0.6,1-4.4,1-4.4s-0.3-0.5-0.3-1.3c0-1.2,0.7-2.1,1.5-2.1c0.7,0,1.1,0.5,1.1,1.2        c0,0.7-0.5,1.8-0.7,2.8c-0.2,0.8,0.4,1.5,1.3,1.5c1.5,0,2.5-1.9,2.5-4.3c0-1.8-1.2-3.1-3.3-3.1c-2.4,0-3.9,1.8-3.9,3.8        c0,0.7,0.2,1.2,0.5,1.6c0.1,0.2,0.2,0.2,0.1,0.4c0,0.1-0.1,0.5-0.2,0.6c-0.1,0.2-0.2,0.3-0.4,0.2c-1.1-0.5-1.6-1.7-1.6-3.1        c0-2.3,1.9-5,5.7-5c3.1,0,5.1,2.2,5.1,4.6c0,3.1-1.7,5.5-4.3,5.5c-0.9,0-1.7-0.5-2-1c0,0-0.5,1.8-0.6,2.2        c-0.1,0.5-0.4,1.1-0.7,1.5l0,0l-0.1,0.2c0.7,0.2,1.5,0.3,2.3,0.3c4.4,0,8-3.6,8-8S20.4,8,16,8z" id="Pinterest" style="fill:#F4F4F4;"/></g></g></g></svg>